{"title":"[ShepardTDS] Haganai Season 2 NEXT Dual Audio [720p 8bit] 1-12 C","uid":12527436,"size":2755724301,"categoryP":"video","categoryS":"tv_shows","magnet":"?xt=urn:btih:1ad64602a57c9a46a6c29345579e71b49322d5e5&amp;dn=%5BShepardTDS%5D+Haganai+Season+2+NEXT+Dual+Audio+%5B720p+8bit%5D+1-12+C&amp;tr=udp%3A%2F%2Ftracker.leechers-paradise.org%3A6969&amp;tr=udp%3A%2F%2Fzer0day.ch%3A1337&amp;tr=udp%3A%2F%2Fopen.demonii.com%3A1337&amp;tr=udp%3A%2F%2Ftracker.coppersurfer.tk%3A6969&amp;tr=udp%3A%2F%2Fexodus.desync.com%3A6969","seeders":1,"leechers":0,"uploader":"ShepardTDS","files":12,"time":1444155306,"description":"General\r\n\r\nFormat : Matroska\r\nFile size : 219 MiB\r\nDuration : 24mn 11s\r\nOverall bit rate : 1 267 Kbps\r\nEncoded date : UTC 2015-10-06 05:13:36\r\nWriting application : mkvmerge v7.7.0 ('Six Voices') 32bit built on Feb 28 2015 23:23:00\r\nWriting library : libebml v1.3.1 + libmatroska v1.4.2\r\n\r\nVideo\r\nID : 1\r\nFormat : AVC\r\nFormat/Info : Advanced Video Codec\r\nFormat profile :   \r\nFormat settings, CABAC : Yes\r\nFormat settings, ReFrames : 16 frames\r\nFormat settings, GOP : M=11, N=25\r\nCodec ID : V_MPEG4/ISO/AVC\r\nDuration : 24mn 11s\r\nBit rate : 750 Kbps\r\nWidth : 1 280 pixels\r\nHeight : 720 pixels\r\nDisplay aspect ratio : 16:9\r\nFrame rate : 23.976 fps\r\nColor space : YUV\r\nChroma subsampling : 4:2:0\r\nBit depth : 8 bits\r\nScan type : Progressive\r\nBits/(Pixel*Frame) : 0.034\r\nStream size : 126 MiB (58%)\r\nWriting library : x264 core 146 r2538 121396c\r\n\r\n\r\nAudio #1\r\nID : 2\r\nFormat : AC-3\r\nFormat/Info : Audio Coding 3\r\nMode extension : CM (complete main)\r\nCodec ID : A_AC3\r\nDuration : 24mn 11s\r\nBit rate mode : Constant\r\nBit rate : 256 Kbps\r\nChannel(s) : 6 channels\r\nChannel positions : Front: L C R, Side: L R, LFE\r\nSampling rate : 48.0 KHz\r\nBit depth : 16 bits\r\nCompression mode : Lossy\r\nStream size : 44.3 MiB (20%)\r\nLanguage : English\r\n\r\nAudio #2\r\nID : 3\r\nFormat : AC-3\r\nFormat/Info : Audio Coding 3\r\nMode extension : CM (complete main)\r\nCodec ID : A_AC3\r\nDuration : 24mn 11s\r\nBit rate mode : Constant\r\nBit rate : 256 Kbps\r\nChannel(s) : 2 channels\r\nChannel positions : Front: L R\r\nSampling rate : 48.0 KHz\r\nBit depth : 16 bits\r\nCompression mode : Lossy\r\nStream size : 44.3 MiB (20%)\r\nLanguage : Japanese\r\n\r\nText #1\r\nID : 4\r\nFormat : UTF-8\r\nCodec ID : S_TEXT/UTF8\r\nCodec ID/Info : UTF-8 Plain Text\r\nLanguage : English\r\n\r\nText #2\r\nID : 5\r\nFormat : VobSub\r\nMuxing mode : zlib\r\nCodec ID : S_VOBSUB\r\nCodec ID/Info : The same subtitle format used on DVDs\r\nLanguage : English\r\n\r\nText #3\r\nID : 6\r\nFormat : UTF-8\r\nCodec ID : S_TEXT/UTF8\r\nCodec ID/Info : UTF-8 Plain Text\r\nLanguage : Japanese\r\n\r\nText #4\r\nID : 7\r\nFormat : VobSub\r\nMuxing mode : zlib\r\nCodec ID : S_VOBSUB\r\nCodec ID/Info : The same subtitle format used on DVDs\r\nLanguage : Japanese","torrent":{"xt":"urn:btih:1ad64602a57c9a46a6c29345579e71b49322d5e5","amp;dn":"%5BShepardTDS%5D+Haganai+Season+2+NEXT+Dual+Audio+%5B720p+8bit%5D+1-12+C","amp;tr":["udp%3A%2F%2Ftracker.leechers-paradise.org%3A6969","udp%3A%2F%2Fzer0day.ch%3A1337","udp%3A%2F%2Fopen.demonii.com%3A1337","udp%3A%2F%2Ftracker.coppersurfer.tk%3A6969","udp%3A%2F%2Fexodus.desync.com%3A6969"],"infoHash":"1ad64602a57c9a46a6c29345579e71b49322d5e5","infoHashBuffer":{"type":"Buffer","data":[26,214,70,2,165,124,154,70,166,194,147,69,87,158,113,180,147,34,213,229]},"announce":[],"urlList":[]}}